<svg xmlns="http://www.w3.org/2000/svg" width="48" height="48" viewBox="0 0 48 48" fill="none">
  <defs>
    <linearGradient id="pd_g" x1="0" y1="0" x2="48" y2="48">
      <stop offset="0" stop-color="#7C4DFF"/>
      <stop offset="1" stop-color="#5B2FBF"/>
    </linearGradient>
  </defs>
  <rect width="48" height="48" rx="13" fill="url(#pd_g)"/>
  <path d="M13 13h22M13 19h22M13 25h22M13 31h22M13 37h22M17 7v34M24 7v34M31 7v34" stroke="rgba(255,255,255,0.16)" stroke-width="1"/>
  <rect x="15" y="14" width="10" height="9" rx="2" fill="#fff"/>
  <rect x="27" y="14" width="6" height="9" rx="2" fill="rgba(255,255,255,0.5)"/>
  <rect x="15" y="25" width="10" height="9" rx="2" fill="rgba(255,255,255,0.55)"/>
  <circle cx="21" cy="31.5" r="3.4" fill="#fff"/>
  <circle cx="21" cy="31.5" r="1.3" fill="#7C4DFF"/>
  <path d="M25 18l6 6M21 25v-3M27 30l3-3" stroke="#fff" stroke-width="1.5" stroke-linecap="round" stroke-dasharray="2 3" opacity="0.9"/>
  <circle cx="38" cy="10" r="1.6" fill="#fff" opacity="0.9"/>
</svg>